<?xml version="1.0" encoding="UTF-8"?>
<svg id="_1800_1" data-name="1800_1" xmlns="http://www.w3.org/2000/svg" viewBox="0 0 500 500">
  <defs>
    <style>
      .cls-1 {
        fill: #fff;
      }
    </style>
  </defs>
  <rect class="cls-1" x="0" width="500" height="500"/>
  <g>
    <path d="M176.01,210.83c2.46-.28,4.93-.11,7.4-.16,9.67-.2,19.37-.25,29.04,0,13.88.36,28.18,1.66,42.03.54,3.24-.26,7.7-1.34,10.79-1.1,4.14.32,1.6,2.65,1.44,5.12.3.42,9.05.55,10.25.55.43,0,.83-.19,1.26-.2,13.77-.28,26.18-.97,40,.58,4.29.48,8.97,1.51,13.18,1.8,4.95.34,10-.36,14.96-.17.46-2.54,1.26-5.09,1.71-7.63.15-.86-.21-2.25.73-2.74,2.23-.44,4.33-1.27,6.59-1.63,6.73-1.06,15.6-1.26,22.43-.97,8.7.36,17.31,2.67,25.81,4.33,4.84.95,9.78,1.69,14.56,2.79l1.31,1.79c7.35,1.56,14.34,3.55,21.07,6.87,4.41,2.17,8.99,5.09,13.45,7,2.42,1.04,6.2,1.16,5.69,4.64-.28,1.89-1.28,4.47-1.73,6.49-2.25,10.25-3.77,21.78-3.7,32.23.02,2.62-.26,5.87,0,8.4.14,1.34,1.97,3.72-.46,3.74-1.32.01-3.32-.46-4.75-.55-19.04-1.09-37.93-2.76-57.02-3.1-11.7-.21-24.23.3-35.81-.92-1.64-.17-4.2-.09-4.11-2.37-.42-.09-.29.05-.41.23-1.17,1.83-.02,3.38-2.96,3.6-5.16.4-10.37.27-15.55.35-17.27.28-36,.5-53.16-.72-3.51-.25-7.01-.75-10.51-1.09-.27,1.23.97,2.91-.82,3.1-4.47.48-10.62.06-15.34.19-15.26.41-31.25,1.87-46.42,1.09-7.78-.4-14.62-2.04-22.13-2.9-1.16-.13-2.38.05-3.54-.2l1.03,6.15c.03.41-.2.71-.61.74-.47.04-3.06-.83-3.86-1-9.61-2.04-19.25-1.72-28.99-1.51-32.56.7-65.21,2.08-97.35,7.89-1.27.39-2.7.78-3.13,2.17-.23.74.02,1.84-1.05,1.89-.59-.13-.66-1.1-.71-1.65-1.92-19.32-1-39.38-4.66-58.48-.5-2.64-1.67-5.85-1.75-8.49-.04-1.36.9-1.35,2.01-1.64,9.77-2.55,21.79-3.86,31.92-5.53,32.34-5.34,64.77-10.18,97.13-15.41.82-.09,2.17-1.69,2.98-.87.08.08.87,1.89.96,2.14.5,1.49.54,3.06.78,4.6ZM173.8,204.46l-1.28.55.36.36c-31.92,5.12-63.9,9.94-95.81,15.18-12,1.97-24.02,3.86-35.94,6.26-.31.24-.19,1.22-.15,1.62.26,3.21,1.56,6.84,2.12,10.11,1.46,8.53,1.59,17.25,2.43,25.86l1.83,31.11.64-2.01c.94-1.97,5.35-2.37,7.34-2.7,31.79-5.31,63.39-6.66,95.54-7.32,7.08-.15,14.1-.32,21.16.57,3.25.41,6.47,1.13,9.62,1.98l-1-6.93c5.19.25,10.24,1.48,15.37,2.17,19.32,2.57,40.05.33,59.55-.15.43-.01.83-.19,1.26-.2h12.16c.07-.98-.08-1.94-.28-2.91-.05-.24-.21-.18.19-.19,3.94-.08,8.89,1.35,12.97,1.28,20.41.56,40.98,1.13,61.39.36,1.93-.07,4.36.05,6.23-.16.32-.04.41-.01.61-.3.6-.82.65-3.9,2.28-3.56.42.61.35,1.85,1.2,2.12,14.63,1.65,29.28.77,43.97,1.17,15.77.43,31.55,2.05,47.32,3.11,3.2.21,6.4.2,9.59.55-.27-1.25-.8-2.25-.91-3.56-.59-7.02.11-15.41.93-22.42.68-5.82,1.54-11.73,2.81-17.45.47-2.11,1.69-5.36,1.88-7.26.23-2.27-4.18-2.96-5.87-3.71-6.61-2.96-12.68-7.21-19.53-9.69-4.74-1.72-9.87-2.94-14.81-3.97-.27-.12-.4-1.43-1.25-1.9-9.83-1.48-19.57-4.07-29.37-5.71-8.49-1.42-16.94-1.54-25.52-.97-3.38.22-7.24.52-10.51,1.37-1.16.3-2.05.95-3.3.9l-2.02,10.48-14.88.21c-8.42-1.02-16.89-2.57-25.38-2.93-12.05-.51-24.21,1.07-36.2.56-1.57-.07-3.24-.44-4.83-.37-.18-.16,1.34-3.79,1.29-4.47-.04-.5-.78-.59-1.19-.64-3.59-.37-8.34.82-12.06,1.09-16.65,1.2-33.43-.71-50.06-.92-8.94-.11-17.96.14-26.88.36-.89.02-1.24.64-1.5-.67-.23-1.15-.18-2.54-.49-3.7-.24-.88-.88-1.62-1.02-2.55Z"/>
    <path d="M330.77,242.59l.73-.37.17.65,1.11.08c.17.23-1.14,2.18-.18,2.28-.45-.75.42-1.21,1.08-1.17.81,1.63,1.52,3.52,1.67,5.36.05.62-.14,1.02-.17,1.48,0,.09.32,0,.36.34.21,1.74.02,3.93-.02,5.66-.04,1.62.32,3.31-.54,4.75l.55-.09v1.83s-10.96-.73-10.96-.73c.06-2.03-.08-4.09,0-6.12.02-.63.33-1.12,0-1.8.72-.21.06-1.49.01-2.21-.13-2.34.75-6.38-2.93-5.75.13,2.04.14,4.07.18,6.12.02.99,0,1.92,0,2.9,0,2.22.02,4.45,0,6.67l-10.78-.91-.73-38.32c5.47.18,11.09-.23,16.54,0,1.22.05,3.35.12,4.41.52,3.75,1.4,3.97,9.18,3.71,12.53-.17,2.17-.75,3.49-2.57,4.73-.69.47-1.83.52-1.63,1.57ZM321.45,232.37v5.2s.45.64.49.65c.91.19,1.99-.46,2.08-1.37.21-2.13.39-4.9-2.57-4.48Z"/>
    <path d="M268.27,248.97l.89,15.67-10.21.57c-.05-1.02-.06-2.19-.18-3.19-.78-6.55-.88-13.28-1.1-19.88-.07-1.98.15-3.97-.2-5.93l-.54-.11-.54-9.02c1.29.22,10.12-.72,10.52-.38.55.45.87,12.43,1.17,14.07.44.02,3.24.03,3.3-.29l-.9-14.11,10.21-.57c.14.14-.19,3.36.55,3.74l-.37.18c.61.57.14,1.31.17,2.01.1,2.29.33,4.63.39,6.92.03,1.46-.39,2.91.18,4.19-.8.34.09,1.93.17,2.75.21,2.18-.19,5.73.18,7.67.06.34.64.65.73,1.82.23,2.93.19,5.92.55,8.84l-10.15.53-.46-.24-1.08-15.25h-3.29Z"/>
    <path d="M399.11,270.32l-7.67-.56-.92-15.5-2.19,15.33-2.66-.07c-.9-.66-2.59-.2-3.84-.28-.4-.03-.78-.12-1.16-.21l-2.39-39.02c2.49.68,5.13.18,7.67.55l-.18,2.19.36-.19.55,14.78,2.19-16.79,5.66.55.55,16.97,2.02-16.78,7,.52.27-.29c.08-.81-.16-1.86.57-2.43l-5.84,41.23Z"/>
    <path d="M235.75,226.9c.23,2.7.24,5.41.37,8.12.32,6.72.64,13.52.74,20.25.05,3.19.03,6.4-.1,9.58l-.64.64-9.85.09-4.59-20.87c-.33-1-.88-.2-.74.54l.75,20.71-6.95.18-.91-38.68c3.47-.1,6.99.29,10.42-.36l5.21,22.08c.93-.73.29-2.04.27-3-.15-6.37-.33-12.7-.54-19.07l6.58-.18Z"/>
    <path d="M405.5,271.05l.36-38.68h10.41s4.21,22.26,4.21,22.26l.56-.81.17-21.27h6.58c-.12,8.91.16,17.83,0,26.74,0,.43-.19.83-.2,1.26-.07,3.28.14,6.56-.21,9.82-.26.4-.62.86-1.14.87l-9.42-.38-3.84-21.53h-.55s-.18,21.71-.18,21.71h-6.76Z"/>
    <path d="M107.29,268.31l.73-.55-.27-.49-.94.3.11.74c-7.06.09-12.28-5.2-10.7-12.41.81-3.67,3.87-6.31,6.86-8.3l-4.2-4.56c.26-.21,1.38-.9,1.44-1.12.03-.11-.15-1.06-.2-1.12-.12-.14-1.01-.14-.87-.77l1.29-.48c.25-.89-.63-1.98-.67-2.53,0-.08.16-1.53.18-1.65.07-.37.71-.42.82-.76.08-.26-.11-.55-.07-.81.08-.41.4-.63.46-1.35.13-1.43-1.26-1.28.07-2.84.45-.52.92-.12.47-1.26,4.9-2.42,9.81-3.8,15.16-1.74,7.66,2.96,8.24,11.8,2.47,17.05-.43.39-2.53,1.73-2.61,1.87-.12.2-.02.54-.05.78l.56.1-.18.54c.34.12.46-.37.73-.28.64.23,2.6,2.15,3.11,2.75,3.52,4.15,3.08,9.04.54,13.58-1.03-.32-2.77-.24-3.7-.57-.17-.06-.7-.88-1.13-.88h-3.2c.67-.86,1.57-1.67,1.92-2.74,1.28-3.89-1.62-6.21-4.66-7.94l.37-.63c-.63.35-1.31-.06-1.83.07-.98.26-4.04,3.19-4.64,4.14-1.22,1.94-1.22,4.75.53,6.37.22.2,2.66,1.88,2.83,1.93.87.26,2.26-.66,3.2-.66,1.41,0,4.57.72,6.15.97,1.26.2,2.22.84,3.44.31.2.2-1.07,1.38-1.28,1.55-1.36,1.19-3.01,1.98-4.67,2.64l-.35-.36c-.41.35-1.72,1.09-2.2,1.09h-5.02ZM109.81,232.06c-1.96.21-4.49,1.41-4.85,3.55-.64,3.79,2.42,6.11,5.5,7.49,2.9-1.59,6.61-4.92,4.84-8.6-.86-1.79-3.64-2.64-5.49-2.44Z"/>
    <path d="M307.19,224.53c-.38.79-.04,1.38,0,2.1.14,2.34.18,4.73.55,7.02l-11.05.37-.44.29.34,5.73,10.23-.37.18,8.39-10.05.36.18,6.21,10.79-.29.35,9.41-20.65.73-1.64-39.23,21.2-.73Z"/>
    <path d="M136.13,226.22c8.46-.76,9.68,5.47,10.45,12.26s.96,14.89-.24,21.65c-.95,5.37-2.97,8.89-8.98,9.1-8.07.27-9.11-6-9.78-12.51-.73-7-1-15.49.42-22.38.98-4.73,2.98-7.66,8.13-8.12ZM136.3,230.96c-3.43.58-3.84,6.59-3.98,9.35-.23,4.66-.4,18.21,1.52,22.03.83,1.64,2.06,2.2,3.88,1.97,3.6-.45,3.91-6.64,4.1-9.4.4-5.54.32-12.35-.39-17.86-.39-3.03-1.27-6.75-5.14-6.09Z"/>
    <path d="M160.98,226.22c8.46-.76,9.68,5.47,10.45,12.26s.96,14.89-.24,21.65c-.95,5.37-2.97,8.89-8.98,9.1-8.07.27-9.11-6-9.78-12.51-.73-7-1-15.49.42-22.38.98-4.73,2.98-7.66,8.13-8.12ZM161.15,230.96c-3.43.58-3.84,6.59-3.98,9.35-.23,4.66-.4,18.21,1.52,22.03.83,1.64,2.06,2.2,3.88,1.97,3.6-.45,3.91-6.64,4.1-9.4.4-5.54.32-12.35-.39-17.86-.39-3.03-1.27-6.75-5.14-6.09Z"/>
    <path d="M200.81,226.22c7.95-.51,8.92,5.36,9.72,11.72.55,4.36.82,9.44.55,13.86-.13,2.09-.87,7.97-1.51,9.81-.33.94-2.82,3.05-3.74,3.57-3.41,1.9-9.02,1.49-11.24-2.03-2.69-4.28-3.13-17.28-2.9-22.48.3-6.72.9-13.92,9.11-14.44ZM200.62,230.77c-3.25.55-3.59,5.47-3.79,8.08-.35,4.6-.32,17.16,1.55,21.07,1.28,2.68,4.71,2.6,6.22.19,1.16-1.86,1.45-5.71,1.56-7.93.22-4.7.01-10.28-.58-14.95-.37-2.9-1.11-7.11-4.96-6.46Z"/>
    <path d="M364.71,229.69c9.41-1.07,10.32,5.49,10.82,13,.35,5.26.26,10.81-.6,16-.25,1.52-1.03,6.11-1.77,7.17-3.05,4.38-11.36,5.41-14.37.66-2.92-4.61-2.58-18.27-2.07-23.83s1.45-12.25,8-13ZM365.99,234.06c-3.65.51-4.07,6.08-4.34,8.99-.4,4.41-.83,16.36.88,20.1,1.32,2.89,4.88,2.73,6.4.12,2.16-3.72,2.04-17.61,1.67-22.23-.21-2.71-.86-7.51-4.61-6.98Z"/>
    <path d="M72.02,229.09l3.26,31.68c.09.43.65.42,1.03.44,1.39.1,3.07-.27,4.48-.37l.69,5.93-18.23,1.91-.55-6.02,5.48-.55-2.56-23.9-4.82,2.18-2.68-6.27,6.91-4.26,6.99-.77Z"/>
    <path d="M96.69,246.05l.37,4.93c-.57.03-1.16-.05-1.73,0-3.52.29-7.27.79-10.77.92-.43.02-1.75.15-1.9-.31l-.21-4.45,14.25-1.09Z"/>
    <rect x="337.83" y="241.63" width="14.5" height="5" transform="translate(-6.83 9.96) rotate(-1.64)"/>
    <rect x="240.25" y="246.01" width="14.5" height="5" transform="translate(-7 7.17) rotate(-1.64)"/>
    <rect x="179.65" y="240.91" width="4.98" height="14.51" transform="translate(-70.69 423.77) rotate(-88.5)"/>
    <polygon points="228.44 215.04 221.23 214.3 220.77 213.76 227.98 214.31 228.26 214.4 228.44 215.04"/>
    <path d="M420.85,219.78v.55c-2.5-.18-4.99-.67-7.49-.91v-.55s7.49.91,7.49.91Z"/>
    <path d="M243.61,216.13c-.06.27.22.78-.26.72-1.8-.22-3.59-.6-5.4-.72v-.55s5.67.55,5.67.55Z"/>
    <path d="M436.02,222.16v.55c-.19.19-4.83-.6-5.36-.76-.37-.12-.33-.38-.31-.69l5.66.91Z"/>
    <path d="M212.82,213.58c-.13-.04-.46-.52-.64-.64-.01-.67,3.69.08,4.2-.09v.73c-.94-.17-2.75.23-3.56,0Z"/>
    <path d="M408.97,218.5c-1.09-.16-4.03.39-4.02-1.09l3.94.54.08.56Z"/>
    <path d="M229.9,215.4l.08-.56c.21-.29,2.39-.3,2.48.1.04.17-.17.52-.36.36-.52-.48-1.35.42-2.2.1Z"/>
    <path d="M424.87,220.33v.55c-.33.11-.44-.29-.64-.3-.22-.02-1.21.57-1.74.3v-.73s2.38.18,2.38.18Z"/>
    <path d="M237.21,215.77h-1.46s0-.73,0-.73c.54-.04,1.45.01,1.46.73Z"/>
  </g>
</svg>