<?xml version="1.0" encoding="UTF-8"?>
<svg id="A_A_2" data-name="A&amp;amp;A_2" xmlns="http://www.w3.org/2000/svg" viewBox="0 0 500 500">
  <defs>
    <style>
      .cls-1 {
        fill: #010101;
      }

      .cls-2 {
        fill: #fff;
      }

      .cls-3 {
        fill: #f6110f;
      }
    </style>
  </defs>
  <rect class="cls-2" x="0" width="500" height="500"/>
  <g>
    <path class="cls-1" d="M324.81,295.07c1.49-.34,3.01-.16,4.52-.16,9.77-.02,19.54,0,29.31-.02.99,0,2.01.21,2.97-.21-.24-2.12-38.87-93.2-41.58-97.93-16.2,36.91-32.3,73.59-48.61,110.74-4.55-10.74-8.85-20.91-13.15-31.08-1.33-3.15-2.55-6.35-4.03-9.43-.83-1.72-.69-3.11.07-4.82,7.99-18.02,15.9-36.08,23.82-54.13,7.96-18.14,15.95-36.28,23.84-54.45.83-1.92,1.81-2.66,3.98-2.64,10.17.13,20.35.13,30.52,0,2.25-.03,3.28.67,4.18,2.75,18.4,42.56,36.89,85.08,55.36,127.61,9.33,21.49,18.66,42.99,27.97,64.49.39.91.96,1.76,1.05,2.78-.59.68-1.33.41-1.97.41-11.79.02-23.57-.03-35.36.05-1.78.01-2.63-.54-3.31-2.19-2.83-6.88-5.9-13.66-8.7-20.56-.74-1.81-1.66-2.32-3.53-2.31-17.83.07-35.66.04-53.49.04-.8,0-1.61-.06-2.41-.09.19-.36.33-.74.56-1.06,6.14-8.27,8.73-17.55,7.98-27.79h0Z"/>
    <path class="cls-1" d="M198.04,243.85c-6.66-15.59-13.32-31.19-20.24-47.38-.61,1.37-.96,2.14-1.3,2.91-21.31,48.95-42.63,97.9-63.89,146.88-.88,2.02-1.86,2.84-4.16,2.8-10.27-.14-20.54-.06-30.81-.07-.87,0-1.79.22-2.63-.23-.26-1.01.37-1.76.72-2.56,27.98-64.25,55.99-128.49,83.92-192.76.81-1.87,1.71-2.51,3.76-2.49,10.37.12,20.75.1,31.12.02,1.87-.02,2.79.53,3.55,2.32,4.92,11.57,9.99,23.07,15.02,34.59-.17,1.02-.77,1.84-1.23,2.72-3.9,7.36-5.61,15.18-5.18,23.5.3,5.79,1.71,11.28,4.12,16.54.39.85,1.17,1.71-.18,2.54-4.73,2.92-8.68,6.78-12.59,10.67h0Z"/>
    <path class="cls-3" d="M198.04,243.85c3.91-3.89,7.86-7.76,12.59-10.67,1.35-.83.57-1.69.18-2.54-2.41-5.26-3.82-10.74-4.12-16.54-.43-8.32,1.28-16.15,5.18-23.5.47-.88,1.07-1.71,1.23-2.72.61-.79,1.24-1.58,1.84-2.39,7.85-10.61,18.49-16.15,31.51-17.3,13.15-1.17,24.25,3.52,34,12.03.94.82,1.64,1.48.91,3.02-4.38,9.16-8.62,18.39-12.96,27.71-1.14-.27-1.57-1.26-2.25-1.9-4.52-4.24-9.71-6.73-16.04-6.49-4.29.17-7.25,2.05-8.51,5.54-1.32,3.65-.23,7.79,2.77,10.44,1.62,1.43,3.51,2.33,5.59,2.85,4.4,1.09,8.84,1.95,13.32,1.85.65.68.17,1.2-.04,1.71-3.99,9.67-8.01,19.32-11.95,29.01-.56,1.38-1.28,1.99-2.81,2.13-1.78.16-3.64.11-5.33.89-3.89.24-7.44,1.65-10.88,3.34-7.58,3.73-12.02,9.8-13.43,18.15-.59,3.51-.65,7.01-.39,10.53.11,1.51-.41,1.96-1.84,1.91-2.41-.07-4.83,0-7.25-.02-8.45-.04-16.9-.08-25.35-.13-.76-12.84,1.14-25.15,7.17-36.67,1.91-3.66,4.35-6.95,6.84-10.22h0Z"/>
    <path class="cls-1" d="M184.03,290.73c8.45.04,16.9.09,25.35.13,2.42.01,4.83-.05,7.25.02,1.42.04,1.95-.4,1.84-1.91-.26-3.51-.21-7.02.39-10.53,1.41-8.35,5.85-14.42,13.43-18.15,3.43-1.69,6.98-3.1,10.88-3.34,8.82,20.26,17.64,40.52,26.46,60.77-.86.54-1.81.82-2.8,1.06-3.73.92-7.51,1.2-11.35,1.19-19.08-.02-38.16-.01-57.25,0-1.2,0-2.4.1-3.6.15-1.2-.05-2.41-.14-3.62-.14-18.74,0-37.48,0-56.21,0h-3.23c-.44-1.05.18-1.73.47-2.43,3.23-8.02,6.49-16.04,9.78-24.04,1.33-3.24.8-2.62,3.85-2.63,11.69-.03,23.37,0,35.06-.02,1.1,0,2.21-.08,3.31-.12h0Z"/>
    <path class="cls-3" d="M194.63,320.11c1.2-.05,2.4-.15,3.6-.15,19.08,0,38.16-.02,57.25,0,3.83,0,7.61-.28,11.35-1.19.99-.24,1.94-.52,2.8-1.06,7.37-2.2,13.31-6.4,17.73-12.71,2.06-2.95,3.2-6.22,3.11-9.76.66-.42,1.27-.36,1.87-.36,10.33,0,20.66,0,31,0,.49,0,.99.11,1.48.18.75,10.24-1.84,19.53-7.98,27.79-.24.32-.38.71-.56,1.06-2.17,2.1-4.04,4.47-6.33,6.47-9.41,8.22-20.44,13.15-32.54,15.74-19.32,4.13-38.24,2.91-56.51-4.97-10.18-4.39-18.78-10.88-25.49-19.77-.3-.4-.51-.85-.77-1.28h0Z"/>
  </g>
</svg>