<?xml version="1.0" encoding="UTF-8"?>
<svg id="BXB_1" xmlns="http://www.w3.org/2000/svg" viewBox="0 0 500 500">
  <defs>
    <style>
      .cls-1 {
        fill: #ffecb8;
      }

      .cls-2 {
        fill: #f3cbf4;
      }

      .cls-3 {
        stroke-width: 1.93px;
      }

      .cls-3, .cls-4, .cls-5, .cls-6, .cls-7, .cls-8 {
        stroke: #1e1e1c;
      }

      .cls-3, .cls-6 {
        stroke-miterlimit: 10;
      }

      .cls-3, .cls-9 {
        fill: #1e1e1c;
      }

      .cls-4 {
        fill: #f48794;
      }

      .cls-4, .cls-5, .cls-7 {
        stroke-width: 7.74px;
      }

      .cls-4, .cls-5, .cls-7, .cls-8 {
        stroke-linecap: round;
        stroke-linejoin: round;
      }

      .cls-5 {
        fill: #cbddf7;
      }

      .cls-10, .cls-6 {
        fill: #fcd2be;
      }

      .cls-6 {
        stroke-width: 7.93px;
      }

      .cls-7 {
        fill: none;
      }

      .cls-8 {
        fill: #b2ffe7;
        stroke-width: 7.47px;
      }
    </style>
  </defs>
  <rect class="cls-10" x="0" width="500" height="500"/>
  <g>
    <circle id="BG" class="cls-6" cx="250" cy="250" r="134.67"/>
    <g>
      <g id="Left_B" data-name="Left B">
        <path class="cls-7" d="M194.12,315.78c-.82-3.08-1.05-6.2-.67-9.38.41-3.69,1.68-7.28,3.82-10.79,2.09-3.42,4.39-6.3,6.9-8.62.1-.09.11-.24.03-.35h0c-.06-.09-.17-.12-.27-.1-4.7,1.17-9.82,1.16-15.36-.04-5.6-1.21-10.11-4.09-13.53-8.64-3.25-4.33-4.9-8.8-4.95-13.42s1.2-9.14,3.76-13.54c1.67-2.84,4.08-5.93,7.24-9.26,3.16-3.34,6.86-6.59,11.1-9.78,3.75-2.82,7.64-5.6,11.66-8.34,3.65-2.49,5.9-4.01,6.73-4.56.12-.08.27-.05.36.06.69.93,3.58,4.82,8.66,11.68,5.64,7.61,13.33,17.9,23.08,30.89,5.14,6.85,10.52,14.04,16.15,21.59,5.59,7.49,11.6,15.38,18.03,23.69.09.11.07.27-.04.36-.74.63-2.95,2.44-6.64,5.43-4.1,3.32-8.18,6.5-12.25,9.55-5.52,4.14-10.76,7.37-15.73,9.68-4.96,2.31-9.98,3.81-15.05,4.51-5.75.8-11.05.25-15.89-1.64-4.84-1.89-8.91-5.05-12.23-9.46-2.45-3.27-4.09-6.44-4.91-9.52Z"/>
      </g>
      <g id="Right_B" data-name="Right B">
        <path class="cls-5" d="M300.97,325.23c-3.31,4.42-7.39,7.57-12.23,9.46-4.84,1.89-10.13,2.44-15.89,1.64-5.07-.7-10.09-2.2-15.05-4.51-4.96-2.31-10.21-5.54-15.73-9.68-4.06-3.05-8.15-6.23-12.25-9.55-3.69-2.99-5.91-4.8-6.64-5.43-.11-.09-.12-.25-.04-.36,6.44-8.31,12.45-16.2,18.03-23.69,5.63-7.55,11.01-14.74,16.15-21.59,9.74-12.98,17.44-23.28,23.08-30.89,5.08-6.85,7.97-10.75,8.66-11.68.08-.11.24-.14.36-.06.83.55,3.08,2.06,6.73,4.56,4.02,2.74,7.91,5.52,11.66,8.34,4.24,3.18,7.94,6.44,11.1,9.78,3.16,3.34,5.57,6.42,7.24,9.26,2.56,4.41,3.82,8.92,3.76,13.54s-1.7,9.1-4.95,13.42c-3.41,4.55-7.92,7.43-13.53,8.64-5.54,1.2-10.66,1.21-15.36.04-.1-.03-.21.01-.27.1h0c-.08.11-.07.26.03.35,2.52,2.33,4.82,5.2,6.9,8.62,2.14,3.5,3.41,7.1,3.82,10.79.37,3.18.15,6.31-.67,9.38-.82,3.08-2.46,6.25-4.91,9.52Z"/>
      </g>
      <g id="Left_B_Outline" data-name="Left B Outline">
        <path class="cls-4" d="M194.12,315.78c-.82-3.08-1.05-6.2-.67-9.38.41-3.69,1.68-7.28,3.82-10.79,2.09-3.42,4.39-6.3,6.9-8.62.1-.09.11-.24.03-.35h0c-.06-.09-.17-.12-.27-.1-4.7,1.17-9.82,1.16-15.36-.04-5.6-1.21-10.11-4.09-13.53-8.64-3.25-4.33-4.9-8.8-4.95-13.42s1.2-9.14,3.76-13.54c1.67-2.84,4.08-5.93,7.24-9.26,3.16-3.34,6.86-6.59,11.1-9.78,3.75-2.82,7.64-5.6,11.66-8.34,3.65-2.49,5.9-4.01,6.73-4.56.12-.08.27-.05.36.06.69.93,3.58,4.82,8.66,11.68,5.64,7.61,13.33,17.9,23.08,30.89,5.14,6.85,10.52,14.04,16.15,21.59,5.59,7.49,11.6,15.38,18.03,23.69.09.11.07.27-.04.36-.74.63-2.95,2.44-6.64,5.43-4.1,3.32-8.18,6.5-12.25,9.55-5.52,4.14-10.76,7.37-15.73,9.68-4.96,2.31-9.98,3.81-15.05,4.51-5.75.8-11.05.25-15.89-1.64-4.84-1.89-8.91-5.05-12.23-9.46-2.45-3.27-4.09-6.44-4.91-9.52Z"/>
      </g>
      <g id="Right_B_Outline" data-name="Right B Outline">
        <path class="cls-7" d="M300.97,325.23c-3.31,4.42-7.39,7.57-12.23,9.46-4.84,1.89-10.13,2.44-15.89,1.64-5.07-.7-10.09-2.2-15.05-4.51-4.96-2.31-10.21-5.54-15.73-9.68-4.06-3.05-8.15-6.23-12.25-9.55-3.69-2.99-5.91-4.8-6.64-5.43-.11-.09-.12-.25-.04-.36,6.44-8.31,12.45-16.2,18.03-23.69,5.63-7.55,11.01-14.74,16.15-21.59,9.74-12.98,17.44-23.28,23.08-30.89,5.08-6.85,7.97-10.75,8.66-11.68.08-.11.24-.14.36-.06.83.55,3.08,2.06,6.73,4.56,4.02,2.74,7.91,5.52,11.66,8.34,4.24,3.18,7.94,6.44,11.1,9.78,3.16,3.34,5.57,6.42,7.24,9.26,2.56,4.41,3.82,8.92,3.76,13.54s-1.7,9.1-4.95,13.42c-3.41,4.55-7.92,7.43-13.53,8.64-5.54,1.2-10.66,1.21-15.36.04-.1-.03-.21.01-.27.1h0c-.08.11-.07.26.03.35,2.52,2.33,4.82,5.2,6.9,8.62,2.14,3.5,3.41,7.1,3.82,10.79.37,3.18.15,6.31-.67,9.38-.82,3.08-2.46,6.25-4.91,9.52Z"/>
      </g>
      <path id="Tail" class="cls-2" d="M228.35,306.41s20.05,16.22,21.66,16.59c3.42-1.87,21.16-15.9,21.64-16.52,0,0-21.63-28.63-21.73-28.67s-21.57,28.6-21.57,28.6Z"/>
      <path id="Head" class="cls-8" d="M210.31,218.96s-3.18-45.26,36.55-45.26h5.44c39.73,0,36.55,45.26,36.55,45.26l-38.59,52.46-39.95-52.46Z"/>
      <g id="Eyes">
        <circle class="cls-3" cx="235.25" cy="204.48" r="3.87"/>
        <circle class="cls-3" cx="263.19" cy="204.48" r="3.87"/>
      </g>
      <g id="Beak_Inner" data-name="Beak Inner">
        <path class="cls-1" d="M256.76,170.12c-.08-.19-.15-.38-.23-.58-2.28-5.67-4.49-11.13-6.63-16.38h-.18c-2.04,4.88-4.2,10.21-6.48,15.97-.13.32-.25.64-.37.94"/>
      </g>
      <g id="Beak_Outer" data-name="Beak Outer">
        <path class="cls-9" d="M264,177.64c-2.1.7-4.37-.36-5.19-2.41-.58-1.47-1.34-3.36-2.28-5.68-2.28-5.67-4.49-11.13-6.63-16.38h-.18c-2.04,4.88-4.2,10.21-6.48,15.97-.98,2.49-1.78,4.51-2.38,6.06-.8,2.06-3.07,3.14-5.18,2.46l-.5-.16c-2.32-.75-3.5-3.33-2.56-5.57,1.28-3.05,2.78-6.56,4.52-10.52,2.25-5.14,4.58-10.48,6.98-16.03.66-1.53,2.17-2.52,3.83-2.52h3.11c1.66,0,3.16.98,3.82,2.5,2.39,5.48,5.04,11.55,7.94,18.2,1.56,3.57,2.78,6.39,3.68,8.46.98,2.25-.19,4.85-2.51,5.62h0Z"/>
      </g>
    </g>
  </g>
</svg>