<?xml version="1.0" encoding="UTF-8"?>
<svg id="Layer_1" data-name="Layer 1" xmlns="http://www.w3.org/2000/svg" viewBox="0 0 500 500">
  <defs>
    <style>
      .cls-1 {
        fill: #efff00;
      }

      .cls-2 {
        fill: #0012ff;
      }

      .cls-3 {
        fill: none;
        stroke: #0012ff;
        stroke-linecap: round;
        stroke-linejoin: round;
        stroke-width: 8.64px;
      }
    </style>
  </defs>
  <rect class="cls-1" x=".02" y=".03" width="500" height="500"/>
  <g>
    <g id="BOTTOM_DOTS" data-name="BOTTOM DOTS">
      <path class="cls-2" d="M413.32,326.39c1.01.11,1.91.39,2.69.84.78.45,1.43,1.01,1.95,1.69.53.67.91,1.43,1.14,2.27.23.84.3,1.72.2,2.63v.05c-.1.89-.35,1.73-.76,2.51-.41.78-.93,1.45-1.59,2.01-.65.55-1.41.97-2.27,1.25-.87.28-1.8.37-2.82.25-1-.11-1.89-.39-2.67-.84-.79-.45-1.44-1.01-1.97-1.69-.53-.68-.91-1.44-1.14-2.29-.23-.85-.3-1.72-.2-2.62v-.05c.11-.91.36-1.76.76-2.54.41-.78.93-1.45,1.59-2.01.65-.55,1.41-.97,2.27-1.24.87-.27,1.8-.35,2.82-.24Z"/>
      <path class="cls-2" d="M389.69,319.03c.89.49,1.62,1.09,2.16,1.8.55.71.93,1.48,1.16,2.3.23.82.29,1.67.18,2.54-.11.87-.38,1.7-.82,2.5l-.03.05c-.43.79-.98,1.47-1.66,2.03-.68.57-1.42.98-2.23,1.25-.81.27-1.68.36-2.58.29-.91-.07-1.81-.35-2.7-.84-.88-.48-1.6-1.08-2.15-1.79-.55-.72-.95-1.49-1.18-2.31-.23-.83-.29-1.68-.18-2.55.11-.87.38-1.71.81-2.49l.03-.04c.44-.8,1-1.49,1.67-2.06.68-.57,1.42-.98,2.23-1.25.81-.26,1.67-.36,2.57-.28.9.08,1.8.36,2.7.85Z"/>
      <path class="cls-2" d="M367.01,304.66c.89.49,1.61,1.1,2.16,1.81.54.71.93,1.48,1.16,2.31.23.83.28,1.67.17,2.54-.11.87-.39,1.7-.83,2.5l-.03.05c-.43.79-.99,1.46-1.66,2.03-.68.57-1.42.98-2.24,1.24s-1.68.35-2.58.28c-.91-.08-1.8-.36-2.7-.85-.88-.48-1.59-1.08-2.14-1.8-.55-.72-.94-1.49-1.17-2.31s-.28-1.68-.16-2.55c.12-.87.39-1.71.83-2.49l.03-.05c.44-.8,1-1.49,1.68-2.05.68-.56,1.42-.98,2.24-1.24s1.67-.35,2.57-.27c.9.08,1.8.37,2.69.86Z"/>
      <path class="cls-2" d="M337.78,296.7c1.02.04,1.93.27,2.73.67s1.49.92,2.06,1.56c.57.64.99,1.37,1.28,2.2.28.83.41,1.7.36,2.61v.05c-.04.9-.24,1.75-.6,2.56-.36.81-.84,1.51-1.46,2.1-.61.6-1.34,1.06-2.19,1.39-.84.33-1.78.48-2.8.43-1-.04-1.91-.27-2.72-.66-.81-.4-1.5-.92-2.07-1.56-.57-.64-.99-1.38-1.28-2.21-.28-.84-.4-1.7-.36-2.6v-.05c.04-.92.24-1.78.6-2.58s.84-1.51,1.46-2.1c.62-.6,1.35-1.06,2.19-1.38.85-.32,1.78-.47,2.8-.42Z"/>
      <path class="cls-2" d="M308.09,301c.95-.37,1.87-.54,2.77-.5s1.73.24,2.51.59c.78.36,1.46.85,2.06,1.49.59.64,1.06,1.39,1.39,2.24l.02.05c.33.84.49,1.7.49,2.58s-.16,1.72-.48,2.51c-.32.79-.8,1.51-1.44,2.16s-1.43,1.16-2.38,1.53c-.93.36-1.85.53-2.76.49-.91-.04-1.75-.23-2.53-.59-.78-.36-1.47-.86-2.06-1.51-.6-.65-1.06-1.39-1.38-2.23l-.02-.05c-.33-.85-.5-1.72-.5-2.6s.16-1.72.48-2.51c.32-.79.8-1.51,1.44-2.15.64-.64,1.44-1.15,2.39-1.52Z"/>
      <path class="cls-2" d="M283.78,315.35c.85-.55,1.73-.9,2.61-1.04s1.75-.12,2.58.07c.84.19,1.61.54,2.32,1.05.71.51,1.31,1.15,1.81,1.91l.03.04c.49.75.82,1.56,1,2.43.18.86.19,1.72.03,2.56s-.48,1.64-.97,2.41c-.5.76-1.17,1.42-2.03,1.98-.84.54-1.71.89-2.6,1.04-.89.15-1.76.12-2.59-.07-.83-.19-1.61-.54-2.32-1.06-.72-.52-1.32-1.15-1.81-1.91l-.03-.04c-.5-.77-.84-1.58-1.01-2.45-.18-.86-.19-1.72-.03-2.56.15-.84.48-1.64.98-2.4.5-.76,1.18-1.41,2.03-1.97Z"/>
      <path class="cls-2" d="M260.98,325.28c1-.21,1.94-.23,2.81-.05.88.18,1.68.51,2.39.99s1.31,1.08,1.79,1.8c.49.73.82,1.54,1.01,2.44v.05c.2.88.22,1.75.08,2.62-.14.87-.43,1.67-.88,2.4-.44.73-1.03,1.37-1.76,1.91-.73.54-1.6.91-2.6,1.13-.98.21-1.91.22-2.8.04-.89-.18-1.69-.51-2.4-.98-.71-.48-1.31-1.08-1.8-1.82-.49-.74-.82-1.54-1.01-2.42v-.05c-.2-.89-.23-1.78-.09-2.65.14-.87.43-1.67.88-2.4.44-.73,1.03-1.36,1.77-1.89.73-.53,1.6-.9,2.6-1.11Z"/>
      <path class="cls-2" d="M235.92,326.41c1.01.11,1.91.38,2.69.83s1.43,1.01,1.96,1.68c.53.67.91,1.43,1.14,2.27.23.84.3,1.72.21,2.63v.05c-.1.89-.35,1.73-.75,2.52s-.93,1.45-1.58,2.01c-.65.56-1.41.98-2.27,1.26s-1.8.37-2.82.26c-1-.11-1.89-.38-2.68-.83s-1.45-1.01-1.97-1.68-.91-1.43-1.14-2.29c-.23-.85-.3-1.72-.21-2.61v-.05c.1-.91.35-1.76.76-2.54s.93-1.45,1.58-2.01,1.41-.97,2.27-1.25c.86-.27,1.8-.36,2.82-.25Z"/>
      <path class="cls-2" d="M212.28,319.15c.9.49,1.62,1.08,2.17,1.79.55.71.94,1.48,1.17,2.3.23.82.3,1.67.19,2.53-.11.87-.38,1.7-.81,2.51l-.02.05c-.43.79-.98,1.47-1.65,2.04-.67.57-1.41.99-2.23,1.26-.81.27-1.67.37-2.58.3-.91-.07-1.81-.34-2.71-.83-.88-.48-1.6-1.07-2.16-1.79-.56-.71-.95-1.48-1.18-2.31-.23-.83-.29-1.67-.18-2.55s.38-1.71.81-2.5l.02-.05c.44-.81.99-1.49,1.66-2.06.67-.57,1.42-.99,2.23-1.26.81-.27,1.67-.36,2.57-.28.9.08,1.8.36,2.7.84Z"/>
      <path class="cls-2" d="M189.64,304.8c.89.5,1.61,1.1,2.15,1.82.54.72.92,1.49,1.15,2.31.22.83.28,1.67.16,2.54-.12.87-.4,1.7-.84,2.5l-.03.05c-.44.78-.99,1.46-1.67,2.02-.68.56-1.43.97-2.24,1.23-.82.26-1.68.35-2.58.27-.91-.08-1.8-.37-2.7-.86-.88-.49-1.59-1.09-2.14-1.81-.55-.72-.93-1.49-1.16-2.32-.22-.83-.27-1.68-.16-2.55.12-.87.4-1.7.83-2.49l.03-.04c.45-.8,1.01-1.48,1.68-2.04.68-.56,1.43-.97,2.24-1.23.82-.26,1.68-.35,2.58-.26.9.09,1.8.38,2.69.87Z"/>
      <path class="cls-2" d="M160.46,296.72c1.02.05,1.93.28,2.73.68.8.4,1.49.92,2.05,1.57.57.64.99,1.38,1.27,2.2s.4,1.7.35,2.61v.05c-.05.9-.25,1.75-.61,2.55s-.85,1.5-1.46,2.1c-.62.59-1.35,1.06-2.2,1.39-.85.33-1.78.47-2.8.42-1-.05-1.91-.27-2.72-.68-.81-.4-1.5-.93-2.07-1.57-.57-.64-.99-1.38-1.27-2.22s-.4-1.7-.36-2.6v-.05c.05-.92.25-1.78.61-2.58.36-.8.85-1.5,1.46-2.1s1.35-1.05,2.19-1.37,1.78-.46,2.8-.41Z"/>
      <path class="cls-2" d="M130.81,300.87c.95-.37,1.88-.53,2.77-.48.9.04,1.73.25,2.51.61.78.36,1.46.86,2.05,1.51.59.64,1.05,1.39,1.37,2.25l.02.05c.32.84.48,1.7.47,2.58,0,.88-.17,1.72-.5,2.51s-.81,1.51-1.45,2.15c-.64.64-1.44,1.15-2.39,1.51-.94.36-1.86.52-2.76.47-.9-.04-1.75-.24-2.52-.6-.78-.36-1.46-.87-2.05-1.52-.59-.65-1.05-1.4-1.37-2.24l-.02-.05c-.33-.85-.49-1.72-.48-2.6,0-.88.17-1.72.5-2.51s.81-1.5,1.46-2.14c.64-.64,1.44-1.14,2.4-1.5Z"/>
      <path class="cls-2" d="M106.36,315.22c.86-.55,1.73-.91,2.61-1.05s1.75-.12,2.58.07c.83.19,1.61.54,2.32,1.04s1.32,1.14,1.82,1.91l.03.04c.49.75.83,1.56,1,2.42s.19,1.72.04,2.56-.48,1.64-.97,2.41c-.49.76-1.17,1.42-2.02,1.98-.84.55-1.71.89-2.6,1.04s-1.76.13-2.59-.06c-.83-.19-1.61-.54-2.33-1.05-.72-.51-1.32-1.15-1.81-1.9l-.03-.04c-.5-.77-.84-1.58-1.02-2.45-.18-.86-.19-1.72-.04-2.56s.48-1.64.98-2.4c.5-.76,1.17-1.41,2.03-1.97Z"/>
      <path class="cls-2" d="M83.57,325.23c1-.22,1.94-.24,2.81-.06.88.18,1.68.51,2.39.98.71.47,1.31,1.07,1.8,1.8.49.72.83,1.53,1.02,2.43v.05c.2.88.23,1.75.09,2.62-.14.87-.43,1.67-.87,2.41-.44.73-1.03,1.37-1.76,1.91-.73.54-1.6.92-2.59,1.14-.98.21-1.91.23-2.8.05-.89-.18-1.69-.5-2.4-.97s-1.31-1.08-1.8-1.81-.83-1.54-1.02-2.42v-.05c-.21-.89-.24-1.78-.1-2.65.14-.87.43-1.67.87-2.41.44-.73,1.03-1.37,1.76-1.9s1.6-.91,2.59-1.12Z"/>
    </g>
    <path id="BOTTOM_LINE" data-name="BOTTOM LINE" class="cls-3" d="M71.85,316.37c44.4,0,39.8-30.25,84.2-30.25s44.4,30.25,88.8,30.25,44.41-30.25,88.82-30.25,44.41,30.25,88.82,30.25"/>
    <path id="TOP_LINE" data-name="TOP LINE" class="cls-3" d="M71.85,209.11c44.4,0,39.8-30.14,84.2-30.14s44.4,30.25,88.8,30.25,44.41-30.25,88.82-30.25,44.41,30.25,88.82,30.25"/>
    <g id="TOP_DOTS" data-name="TOP DOTS">
      <path class="cls-2" d="M413.32,183.73c1.01.11,1.91.39,2.69.84.78.45,1.43,1.01,1.95,1.69.53.67.91,1.43,1.14,2.27.23.84.3,1.72.2,2.63v.05c-.1.89-.35,1.73-.76,2.51-.41.78-.93,1.45-1.59,2.01-.65.55-1.41.97-2.27,1.25-.87.28-1.8.37-2.82.25-1-.11-1.89-.39-2.67-.84-.79-.45-1.44-1.01-1.97-1.69-.53-.68-.91-1.44-1.14-2.29-.23-.85-.3-1.72-.2-2.62v-.05c.11-.91.36-1.76.76-2.54.41-.78.93-1.45,1.59-2.01.65-.55,1.41-.97,2.27-1.24.87-.27,1.8-.35,2.82-.24Z"/>
      <path class="cls-2" d="M389.69,176.37c.89.49,1.62,1.09,2.16,1.8.55.71.93,1.48,1.16,2.3.23.82.29,1.67.18,2.54-.11.87-.38,1.7-.82,2.5l-.03.05c-.43.79-.98,1.47-1.66,2.03-.68.57-1.42.98-2.23,1.25-.81.27-1.68.36-2.58.29-.91-.07-1.81-.35-2.7-.84-.88-.48-1.6-1.08-2.15-1.79-.55-.72-.95-1.49-1.18-2.31-.23-.83-.29-1.68-.18-2.55.11-.87.38-1.71.81-2.49l.03-.04c.44-.8,1-1.49,1.67-2.06.68-.57,1.42-.98,2.23-1.25.81-.26,1.67-.36,2.57-.28.9.08,1.8.36,2.7.85Z"/>
      <path class="cls-2" d="M367.01,162c.89.49,1.61,1.1,2.16,1.81.54.71.93,1.48,1.16,2.31.23.83.28,1.67.17,2.54-.11.87-.39,1.7-.83,2.5l-.03.05c-.43.79-.99,1.46-1.66,2.03-.68.57-1.42.98-2.24,1.24s-1.68.35-2.58.28c-.91-.08-1.8-.36-2.7-.85-.88-.48-1.59-1.08-2.14-1.8-.55-.72-.94-1.49-1.17-2.31s-.28-1.68-.16-2.55c.12-.87.39-1.71.83-2.49l.03-.05c.44-.8,1-1.49,1.68-2.05.68-.56,1.42-.98,2.24-1.24s1.67-.35,2.57-.27c.9.08,1.8.37,2.69.86Z"/>
      <path class="cls-2" d="M337.78,154.04c1.02.04,1.93.27,2.73.67s1.49.92,2.06,1.56c.57.64.99,1.37,1.28,2.2.28.83.41,1.7.36,2.61v.05c-.04.9-.24,1.75-.6,2.56-.36.81-.84,1.51-1.46,2.1-.61.6-1.34,1.06-2.19,1.39-.84.33-1.78.48-2.8.43-1-.04-1.91-.27-2.72-.66-.81-.4-1.5-.92-2.07-1.56-.57-.64-.99-1.38-1.28-2.21-.28-.84-.4-1.7-.36-2.6v-.05c.04-.92.24-1.78.6-2.58s.84-1.51,1.46-2.1c.62-.6,1.35-1.06,2.19-1.38.85-.32,1.78-.47,2.8-.42Z"/>
      <path class="cls-2" d="M308.09,158.34c.95-.37,1.87-.54,2.77-.5s1.73.24,2.51.59c.78.36,1.46.85,2.06,1.49.59.64,1.06,1.39,1.39,2.24l.02.05c.33.84.49,1.7.49,2.58s-.16,1.72-.48,2.51c-.32.79-.8,1.51-1.44,2.16s-1.43,1.16-2.38,1.53c-.93.36-1.85.53-2.76.49-.91-.04-1.75-.23-2.53-.59-.78-.36-1.47-.86-2.06-1.51-.6-.65-1.06-1.39-1.38-2.23l-.02-.05c-.33-.85-.5-1.72-.5-2.6s.16-1.72.48-2.51c.32-.79.8-1.51,1.44-2.15.64-.64,1.44-1.15,2.39-1.52Z"/>
      <path class="cls-2" d="M283.78,172.69c.85-.55,1.73-.9,2.61-1.04s1.75-.12,2.58.07c.84.19,1.61.54,2.32,1.05.71.51,1.31,1.15,1.81,1.91l.03.04c.49.75.82,1.56,1,2.43.18.86.19,1.72.03,2.56s-.48,1.64-.97,2.41c-.5.76-1.17,1.42-2.03,1.98-.84.54-1.71.89-2.6,1.04-.89.15-1.76.12-2.59-.07-.83-.19-1.61-.54-2.32-1.06-.72-.52-1.32-1.15-1.81-1.91l-.03-.04c-.5-.77-.84-1.58-1.01-2.45-.18-.86-.19-1.72-.03-2.56.15-.84.48-1.64.98-2.4.5-.76,1.18-1.41,2.03-1.97Z"/>
      <path class="cls-2" d="M260.98,182.61c1-.21,1.94-.23,2.81-.05.88.18,1.68.51,2.39.99s1.31,1.08,1.79,1.8c.49.73.82,1.54,1.01,2.44v.05c.2.88.22,1.75.08,2.62-.14.87-.43,1.67-.88,2.4-.44.73-1.03,1.37-1.76,1.91-.73.54-1.6.91-2.6,1.13-.98.21-1.91.22-2.8.04-.89-.18-1.69-.51-2.4-.98-.71-.48-1.31-1.08-1.8-1.82-.49-.74-.82-1.54-1.01-2.42v-.05c-.2-.89-.23-1.78-.09-2.65.14-.87.43-1.67.88-2.4.44-.73,1.03-1.36,1.77-1.89.73-.53,1.6-.9,2.6-1.11Z"/>
      <path class="cls-2" d="M235.92,183.75c1.01.11,1.91.38,2.69.83s1.43,1.01,1.96,1.68c.53.67.91,1.43,1.14,2.27.23.84.3,1.72.21,2.63v.05c-.1.89-.35,1.73-.75,2.52s-.93,1.45-1.58,2.01c-.65.56-1.41.98-2.27,1.26s-1.8.37-2.82.26c-1-.11-1.89-.38-2.68-.83s-1.45-1.01-1.97-1.68-.91-1.43-1.14-2.29c-.23-.85-.3-1.72-.21-2.61v-.05c.1-.91.35-1.76.76-2.54s.93-1.45,1.58-2.01,1.41-.97,2.27-1.25c.86-.27,1.8-.36,2.82-.25Z"/>
      <path class="cls-2" d="M212.28,176.49c.9.49,1.62,1.08,2.17,1.79.55.71.94,1.48,1.17,2.3.23.82.3,1.67.19,2.53-.11.87-.38,1.7-.81,2.51l-.02.05c-.43.79-.98,1.47-1.65,2.04-.67.57-1.41.99-2.23,1.26-.81.27-1.67.37-2.58.3-.91-.07-1.81-.34-2.71-.83-.88-.48-1.6-1.07-2.16-1.79-.56-.71-.95-1.48-1.18-2.31-.23-.83-.29-1.67-.18-2.55s.38-1.71.81-2.5l.02-.05c.44-.81.99-1.49,1.66-2.06.67-.57,1.42-.99,2.23-1.26.81-.27,1.67-.36,2.57-.28.9.08,1.8.36,2.7.84Z"/>
      <path class="cls-2" d="M189.64,162.14c.89.5,1.61,1.1,2.15,1.82.54.72.92,1.49,1.15,2.31.22.83.28,1.67.16,2.54-.12.87-.4,1.7-.84,2.5l-.03.05c-.44.78-.99,1.46-1.67,2.02-.68.56-1.43.97-2.24,1.23-.82.26-1.68.35-2.58.27-.91-.08-1.8-.37-2.7-.86-.88-.49-1.59-1.09-2.14-1.81-.55-.72-.93-1.49-1.16-2.32-.22-.83-.27-1.68-.16-2.55.12-.87.4-1.7.83-2.49l.03-.04c.45-.8,1.01-1.48,1.68-2.04.68-.56,1.43-.97,2.24-1.23.82-.26,1.68-.35,2.58-.26.9.09,1.8.38,2.69.87Z"/>
      <path class="cls-2" d="M160.46,154.05c1.02.05,1.93.28,2.73.68.8.4,1.49.92,2.05,1.57.57.64.99,1.38,1.27,2.2s.4,1.7.35,2.61v.05c-.05.9-.25,1.75-.61,2.55s-.85,1.5-1.46,2.1c-.62.59-1.35,1.06-2.2,1.39-.85.33-1.78.47-2.8.42-1-.05-1.91-.27-2.72-.68-.81-.4-1.5-.93-2.07-1.57-.57-.64-.99-1.38-1.27-2.22s-.4-1.7-.36-2.6v-.05c.05-.92.25-1.78.61-2.58.36-.8.85-1.5,1.46-2.1s1.35-1.05,2.19-1.37,1.78-.46,2.8-.41Z"/>
      <path class="cls-2" d="M130.81,158.21c.95-.37,1.88-.53,2.77-.48.9.04,1.73.25,2.51.61.78.36,1.46.86,2.05,1.51.59.64,1.05,1.39,1.37,2.25l.02.05c.32.84.48,1.7.47,2.58,0,.88-.17,1.72-.5,2.51s-.81,1.51-1.45,2.15c-.64.64-1.44,1.15-2.39,1.51-.94.36-1.86.52-2.76.47-.9-.04-1.75-.24-2.52-.6-.78-.36-1.46-.87-2.05-1.52-.59-.65-1.05-1.4-1.37-2.24l-.02-.05c-.33-.85-.49-1.72-.48-2.6,0-.88.17-1.72.5-2.51s.81-1.5,1.46-2.14c.64-.64,1.44-1.14,2.4-1.5Z"/>
      <path class="cls-2" d="M106.36,172.55c.86-.55,1.73-.91,2.61-1.05s1.75-.12,2.58.07c.83.19,1.61.54,2.32,1.04s1.32,1.14,1.82,1.91l.03.04c.49.75.83,1.56,1,2.42s.19,1.72.04,2.56-.48,1.64-.97,2.41c-.49.76-1.17,1.42-2.02,1.98-.84.55-1.71.89-2.6,1.04s-1.76.13-2.59-.06c-.83-.19-1.61-.54-2.33-1.05-.72-.51-1.32-1.15-1.81-1.9l-.03-.04c-.5-.77-.84-1.58-1.02-2.45-.18-.86-.19-1.72-.04-2.56s.48-1.64.98-2.4c.5-.76,1.17-1.41,2.03-1.97Z"/>
      <path class="cls-2" d="M83.57,182.57c1-.22,1.94-.24,2.81-.06.88.18,1.68.51,2.39.98.71.47,1.31,1.07,1.8,1.8.49.72.83,1.53,1.02,2.43v.05c.2.88.23,1.75.09,2.62-.14.87-.43,1.67-.87,2.41-.44.73-1.03,1.37-1.76,1.91-.73.54-1.6.92-2.59,1.14-.98.21-1.91.23-2.8.05-.89-.18-1.69-.5-2.4-.97s-1.31-1.08-1.8-1.81-.83-1.54-1.02-2.42v-.05c-.21-.89-.24-1.78-.1-2.65.14-.87.43-1.67.87-2.41.44-.73,1.03-1.37,1.76-1.9s1.6-.91,2.59-1.12Z"/>
    </g>
    <g id="CUTAWAY_OUTLINES" data-name="CUTAWAY OUTLINES">
      <path class="cls-2" d="M119.62,251.4c.56,1.08.22,2.42-.78,3.12-3.45,2.44-6.16,4.03-10.36,6.18-8.11,4.16-12.74,5.42-17.34,4.74-4.7-.67-9-3.95-11.46-8.76-2.37-4.63-2.53-9.82-.44-13.82,1.98-3.78,5.86-7.16,11.77-10.19,4.05-2.07,8.64-4.01,14.21-5.97,1.15-.41,2.44.11,3,1.2l3.35,6.59c.67,1.32.01,2.93-1.39,3.41-3.47,1.2-6.32,2.39-8.91,3.72-5.52,2.83-7.05,5.16-5.43,8.32,1.53,2.99,4.21,3,10.03.02,2.74-1.4,5.1-2.86,7.44-4.62,1.21-.91,2.95-.51,3.64.83l2.68,5.22Z"/>
      <path class="cls-2" d="M142.59,220.7c1.35.02,2.42,1.13,2.4,2.48l-.27,16.97c-.02,1.52.11,2.27.44,2.75.47.67,1.58,1.12,2.84,1.14,1.21.02,2.33-.39,2.83-1.04.35-.47.5-1.22.53-2.74l.27-16.97c.02-1.35,1.13-2.43,2.48-2.4l11.74.19c1.35.02,2.42,1.13,2.4,2.48l-.27,16.64c-.09,5.35-.94,7.56-3.79,9.6-3.09,2.22-8.78,3.36-16.34,3.24-8.09-.13-13.94-1.6-16.85-4.25-2.39-2.12-2.99-4.22-2.9-9.66l.26-16.21c.02-1.35,1.13-2.43,2.48-2.4l11.74.19Z"/>
      <path class="cls-2" d="M183.03,257.14l6.61-12.51c.63-1.19.17-2.67-1.02-3.3l-4.25-2.24c-1.19-.63-1.65-2.11-1.02-3.3l3.58-6.78c.63-1.19,2.11-1.65,3.3-1.02l27.57,14.55c1.19.63,1.65,2.11,1.02,3.3l-3.58,6.78c-.63,1.19-2.11,1.65-3.3,1.02l-4.3-2.27c-1.19-.63-2.67-.17-3.3,1.02l-6.61,12.52c-.63,1.19-2.11,1.65-3.3,1.02l-10.38-5.48c-1.19-.63-1.65-2.11-1.02-3.3Z"/>
      <path class="cls-2" d="M248.28,276.4l-.16-.52c-.31-1.05-1.28-1.76-2.37-1.74l-7.12.09c-1.09.01-2.04.75-2.33,1.8l-.14.53c-.29,1.05-1.24,1.79-2.33,1.8l-11.75.15c-1.66.02-2.86-1.59-2.36-3.17l8.39-26.81c.32-1.01,1.24-1.7,2.3-1.71l22.77-.29c1.06-.01,2.01.66,2.35,1.66l8.94,26.59c.53,1.57-.63,3.2-2.28,3.22l-11.53.15c-1.09.01-2.06-.7-2.37-1.74ZM239.8,262.34h0c-.53,1.6.67,3.24,2.35,3.22h0c1.67-.02,2.82-1.67,2.27-3.25h0c-.77-2.2-3.88-2.18-4.62.03Z"/>
      <path class="cls-2" d="M305.65,252.47l-2.78-3.58c-1.51-1.94-4.62-.69-4.36,1.76l.48,4.52c.12,1.08-.5,2.11-1.51,2.52l-11.28,4.56c-1.01.41-2.17.1-2.84-.76l-17.13-21.89c-1-1.28-.5-3.16,1.01-3.77l10.67-4.31c1.07-.43,2.29-.06,2.94.9l1.93,2.84c1.45,2.15,4.81.85,4.44-1.71l-.51-3.58c-.16-1.11.46-2.19,1.5-2.61l6.59-2.67c1.05-.42,2.25-.07,2.91.85l1.79,2.53c1.5,2.11,4.82.75,4.4-1.81l-.49-3c-.18-1.13.44-2.23,1.5-2.66l10.39-4.2c1.5-.61,3.17.39,3.34,2l2.99,27.61c.12,1.09-.5,2.12-1.51,2.53l-11.63,4.7c-1.01.41-2.18.1-2.85-.77Z"/>
      <path class="cls-2" d="M360.9,252.09l-.03-.55c-.06-1.09-.83-2.01-1.9-2.25l-6.95-1.58c-1.06-.24-2.16.25-2.68,1.21l-.27.48c-.52.96-1.62,1.45-2.68,1.21l-11.47-2.6c-1.62-.37-2.41-2.21-1.56-3.64l14.42-24.12c.54-.91,1.61-1.36,2.64-1.13l22.21,5.03c1.03.23,1.8,1.11,1.89,2.17l2.48,27.95c.15,1.65-1.36,2.96-2.97,2.6l-11.24-2.55c-1.06-.24-1.84-1.16-1.9-2.25ZM355.94,236.43h0c-.89,1.43-.11,3.31,1.53,3.68h0c1.63.37,3.14-.97,2.97-2.63h0c-.23-2.32-3.27-3.03-4.5-1.06Z"/>
      <path class="cls-2" d="M391.29,265.95l2.29-5.49c.18-.42.23-.89.15-1.34l-3.55-21.16c-.32-1.9,1.58-3.4,3.35-2.66l11.59,4.83c.89.37,1.48,1.23,1.5,2.2l.08,3.15c.05,2.15,2.66,3.19,4.18,1.66l2.07-2.09c.7-.71,1.76-.92,2.68-.54l11.03,4.6c1.77.74,2.04,3.13.48,4.24l-17.41,12.43c-.37.26-.66.63-.83,1.05l-2.29,5.5c-.52,1.25-1.95,1.83-3.19,1.31l-10.79-4.5c-1.25-.52-1.83-1.95-1.31-3.19Z"/>
    </g>
  </g>
</svg>