<?xml version="1.0" encoding="UTF-8"?>
<svg id="EZL_2" xmlns="http://www.w3.org/2000/svg" viewBox="0 0 500 500">
  <defs>
    <style>
      .cls-1 {
        fill: #edffc0;
      }

      .cls-2 {
        fill: #47943d;
      }

      .cls-3 {
        fill: none;
        stroke: #edffc0;
        stroke-linejoin: round;
        stroke-width: 6px;
      }
    </style>
  </defs>
  <rect class="cls-2" x="0" width="500" height="500"/>
  <rect class="cls-3" x="24.07" y="24.07" width="451.87" height="451.87"/>
  <g>
    <g>
      <g>
        <path class="cls-1" d="M237.29,226c.88-11.12,2.17-22.43,6.35-32.85.73-1.81,4.23-7.83,4.32-8.75.21-2.09-4.03-10.99-3.62-11.43,1.39-1.51,5.32,8.09,5.4,8.91,3.6-5.03,8.72-8.74,15.03-9.39.93.72.15.75-.37,1.06-1.5.89-3.02,1.37-4.52,2.51-3.68,2.8-6.56,7.11-8.4,11.33,3.01,12.71,5.56,25.63,5.48,38.79-.32.98-1.66.84-2.53.8-3.5-.13-1.69-2.15-1.61-4.47.31-10.04-1.3-19.96-2.84-29.82-1.45-.23-.73.41-.94,1.15-2.99,10.56-3.4,21.24-3.75,32.17h-7.98Z"/>
        <path class="cls-1" d="M295.52,123.22c.38.39-3.73,8.7-4.23,10.08-8.51,23.47-11.74,62.77-10.81,87.79.06,1.5.91,3.68.52,5.09-.08.3-5.61,1.67-5.91,1.62-1.06-.18-.75-6.77-.71-8.16.42-12.9,1.63-26.06,3.37-38.87,1.6-11.77,7.82-49.15,16.13-56.63.3-.27,1.22-1.37,1.65-.93Z"/>
        <path class="cls-1" d="M273.92,151.85c-1.38,6.11-3.3,12.06-4.55,18.21-3.71,18.29-5.12,36.11-4.87,54.79.02,1.25,1.03,2.29-.68,2.55-1.37.21-3.04-.14-4.47,0,.48-18.26,2.34-37.17,6.4-54.97,1.02-4.48,2.42-9.87,4.06-14.14.79-2.06,1.82-5.64,4.11-6.45Z"/>
        <path class="cls-1" d="M309.61,175.79c.26,1.25-.32.81-.92,1.16-1.09.64-2.4,1.03-3.45,1.73-14.86,9.88-17.47,34.25-17.69,50.61-.89-.15-5.44.2-5.64,0-.95-.95,1.92-18.13,2.5-20.74,2.89-13.05,9.92-31.12,25.21-32.76Z"/>
        <path class="cls-1" d="M216.63,163.58c.67-.05.74-.69.95-1.15,1.68-3.66,1.88-8.56,5.61-11.05l-4.69,18.07c3.84,17.8,7.38,37.57,6.13,55.87-.04.58-.15,2.43-.8,2.58-.96.22-7.02,0-7.23-.77-.33-1.21,1.34-10.24,1.46-12.6.52-10.29-.6-20.55-1.44-30.76-.68-.12-.61.89-.71,1.39-.27,1.31-.44,2.74-.63,4.07-1.47,10.45-2.33,22.27-1.96,32.81.04,1.01.96,4.91.49,5.38-.18.18-4.99.18-5.17,0-.95-.95,1.09-23.67,1.47-26.93,1.07-9.15,2.88-18.23,4.65-27.26-1.58-9.1-4.01-18.01-7.53-26.53,1.26-1.18,4.89,4.83,5.34,5.69,1.78,3.34,3.19,7.52,4.06,11.2Z"/>
        <path class="cls-1" d="M200.66,226.94c-.36-.36.52-8.49.49-10.11-.19-9.78-2.41-22.7-4.85-32.23-.43-1.66-4.04-11.19-3.62-11.63.46-.49,1.31.64,1.6.97,3.47,3.94,6.5,17.41,7.64,22.87,2.01,9.65,3.27,19.47,3.37,29.36-.14,1.08-4.46.95-4.63.77Z"/>
        <path class="cls-1" d="M236.33,225.04c-1.24-.43-8.18,2.25-8.43,1.9-.39-.54-.09-11.65-.02-13.39.83-22.84,5.43-61.85,14.65-82.51.37-.83,5.41-10.45,6.5-9.22.36.4-3.29,7.87-3.76,9.14-4.37,11.78-6.59,30.89-7.97,43.66-1.81,16.73-1.68,33.67-.97,50.43Z"/>
        <path class="cls-1" d="M277.68,168.28c-4.35,18.73-7.32,38.49-5.17,57.72-.81-.38-4.03.68-4.22.47-.99-1.05,1.03-25.33,1.47-28.8.91-7.31,2.3-16.19,4.51-23.18.15-.49,2.23-7.53,3.41-6.21Z"/>
      </g>
      <g>
        <path class="cls-1" d="M281.2,241.96c.8.23,2.19,2.69,1.29,3.61-8.28,11.42-14.86,24.21-24.07,34.87l18.72-1c.68-1.11,2.52-8.57,2.89-8.86.14-.11,3.23.96,3.3,1.25.72,3.03-1.37,8.58-.96,11.89h-29.35c-.56,0-2.3-2.76-1.29-3.61,7.94-11.49,15.17-23.5,23.59-34.64-2.06.13-15.32-.24-15.92.28-.3.26-2.02,7.12-2.44,7.42-.35.25-3.16-.3-3.27-.72-.69-2.56,1.17-7.67.97-10.51h26.53Z"/>
        <path class="cls-1" d="M244.33,242.43c.3.3.36,7.38.47,8.45-4.9,1.01-3.03-2.22-5.01-5.19l-13.31-.45v15.49h8.69c.97,0,.73-4.22,1.22-4.64.36-.31,2.5.09,3.24-.05v12.67c-.73-.15-2.88.25-3.24-.05-.5-.42-.26-4.64-1.22-4.64h-8.69v16.43l15.18-.45c.85-.21,2.39-6.35,3.12-6.86.66-.47,2.97.24,3.25,1.04s-1.17,9.46-1.64,9.58c-3.59-.53-29.63.78-30.5-.46-.4-.57-.38-2.21.24-2.64,1.1-.76,4.03.74,4.26-1.38v-33.29c-2.95-.77-5.5.57-4.7-3.55h28.65Z"/>
      </g>
    </g>
    <path class="cls-1" d="M375.83,336.76c-.11-.11-.07-2.45.2-2.85.48-.69,2.04-.23,2.64-.64,1.55-1.06,1.04-17.59,0-20.23-2.48-6.26-12.24-1.95-12.7.49-.66,3.49.17,10.12.02,14.1-.06,1.62-.95,3.99-.52,5.56.21.76,3.64.63,3.78.76.1.1.11,2.71,0,2.81-.34.34-8.18-.07-9.65-.02-.76.03-3.27.73-3.5.49-.12-.12-.09-2.89.2-3.32.6-.86,2.88-.24,3.09-.44.82-.79-.65-19.95.02-22.73-.09-.55-3.55-.55-3.76-.77-.19-.2-.36-3.79.74-4.14.98-.3,7.44-.76,8.32-.47,1.41.46.36,2.68,1,3.69,4.37-4,16.49-6.59,18.8.46.99,3.04.3,13.51.7,14.09.05.08.88-.77.94-.23-.53,2.5-1.62,7.44-.97,9.8.23.86,4.1.61,4.26.76.1.1.14,2.82,0,2.82-1.84,0-13.14.48-13.62,0Z"/>
    <path class="cls-1" d="M144.77,336.76c-.1-.1-.07-2.69.02-2.79.17-.18,3.11-.11,3.29-.78-.48-2.83.65-22.13-.3-22.76-1.95-1.3-4.29.73-3.51-3.9.06-.37,6.58-1.28,7.31-1.25,3.26.15,1.63,3.59,2.12,4.27.18.25,4.42-2.54,5.31-2.9,3.76-1.51,9.42-2.46,12.52.79,4.59,4.81,1.24,24.97,2.36,26.04.84.8,5.61-1.21,4.22,3.29h-13.62c-.55-3.87.62-2.34,3.32-3.57-.9-5.4,1.41-16.76-.73-21.3s-10.85-1.76-12.91,1.65c.52,2.46-.72,19.24,0,19.93s5.04-1.15,3.75,3.29c-1.69-.35-12.69.47-13.15,0Z"/>
    <path class="cls-1" d="M138.19,333.95c.24.23,4.24-.82,3.25,2.06-.44,1.27-6.46,1.53-7.63,1.14-1.4-.47-1.04-2.63-1.48-3.68l-4.84,3.72c-5.45.89-12.48-.12-13.25-6.77-.7-6.14,1.26-8.42,6.92-10.46,1.86-.67,10.85-1.7,10.94-2.25,1.32-8.04-5.3-8.57-11.3-7.03-2.04.52-4.42,3.12-5.07-.09-.34-1.7,2.45-3.27,3.89-3.9,6.47-2.86,18.67-2.74,18.57,6.83v20.41ZM132.56,321.28c-4.18-.34-12.07.93-12.25,6.33-.16,4.54,3.3,6.76,7.57,5.65.7-.18,4.68-2.32,4.68-2.83v-9.15Z"/>
    <path class="cls-1" d="M296.47,333.95c.19.19,3.11-.19,3.29,0,.1.1.07,2.69-.03,2.8-.2.21-5.26.89-5.86.88-2.74-.06-2.96-1.89-3.27-4.14-5.72,6.59-18.57,5.17-18.45-4.93.07-5.86,5.19-8.29,10.14-9.48,1.46-.35,7.78-.8,8.07-1.08.17-.17.06-4.15-.09-4.82-1.64-7.34-15.21-.21-15.86-.8-.1-.09-.83-2.45-.82-2.59.08-1.19,6.43-3.53,7.77-3.84,6.96-1.6,14.02-.57,15.12,7.6.55,2.52-.72,19.69,0,20.42ZM290.83,321.28c-4.5-.25-12.23.95-12.25,6.8-.02,4.52,3.47,6.25,7.57,5.18.7-.18,4.68-2.32,4.68-2.83v-9.15Z"/>
    <path class="cls-1" d="M89.82,299.22v34.26c1.95-.35,13.27-.09,14.01-.55s2.23-7.21,2.98-8.52c.79-1.38,3.67-.25,3.7-.05.52,2.82-1.81,8.46-1.51,11.62-.08.27-.45.78-.63.78h-29.35c-.14,0-.1-2.72,0-2.82.17-.17,4.6-.02,4.73-.74v-33.72c-.1-.61-3.97-.41-4.52-1.18-.5-.7-.18-2.85.5-2.85h15.03c.68,0,1.17,2.46.26,3.08-.64.43-4.13.51-5.19.68Z"/>
    <path class="cls-1" d="M237.29,306.73v7.51c-6.23,1.26-2-4.81-7.32-5.59-2.74-.4-7.45-.07-7.69,3.5-.51,7.51,17.39,5.73,16.92,16.88-.24,5.8-6.45,8.57-11.56,8.69-1.24.03-11.01-1.8-11.01-2.36v-7.51c.79.16,3.36-.26,3.71.05.23.19.56,3.71,1.24,4.62,2.1,2.83,11.6,2.99,11.94-2.12.42-6.35-13.32-6.14-16.05-13.01-4.66-11.73,12.12-14,19.83-10.66Z"/>
    <path class="cls-1" d="M267.3,306.78c.68.79-.96,7.31-.42,8.87-.79-.16-3.36.25-3.71-.05-1.34-1.15.64-6.53-3.56-6.99-5.33-.58-8.05,1.45-9.42,6.55-1.99,7.4.07,19.26,9.89,18.33,1.64-.16,6.51-2.56,6.8-2.35.1.07.82,2.15.73,2.35-.4.91-3.89,2.66-4.96,3.03-23.73,8.36-27.65-33.9-1.17-31.2.74.08,5.63,1.23,5.83,1.45Z"/>
    <path class="cls-1" d="M337.79,336.76c-.1-.1-.1-2.71,0-2.81.17-.17,4.62-.22,4.71-.74v-22.44c-.15-.57-3.87-.8-4.18-1.29-.14-.23-.17-3.11-.06-3.22.28-.27,7.11-1.02,7.75-.99,1.37.06,2.11.76,2.13,2.13.68,3.15-.96,25.16-.02,26.06.17.16,4.52.31,4.69.48s-.1,2.22,0,2.81c-1.9-.41-14.5.53-15.03,0Z"/>
    <path class="cls-1" d="M423.74,305.32v4.69c-.92.15-5.42-.21-5.63,0-.35.33.8,2.79.9,3.55.85,6.57-4.44,11.56-10.66,12.27-3.46.39-7.27-1.74-8,2.36-.59,3.34,2.16,4.07,4.85,4.33,5.3.53,14.56-1.88,17.23,4.37,3.57,8.37-5.96,13.45-12.77,14.87h-7.98c-5.84-1.26-11.02-5.45-7.91-11.89.93-1.92,3.96-3.8,4.15-4.3.11-.3-.8-.3-1.14-.72-1.99-2.48-1.48-6.03.46-8.41.45-.55,2.07-1.47,2.08-1.67.01-.39-3.93-2.84-4.92-5.87-3.11-9.54,7.24-14.52,15.44-13.56,1.75.21,4.72,1.79,5.69,1.79,1.15,0,2.64-1.48,3.86-1.74,1.42-.29,2.93-.03,4.36-.11ZM405.3,308.24c-5.12.81-5.88,5.89-4.84,10.25,1.28,5.38,10.67,6.12,12.16.35s-.52-11.67-7.31-10.6ZM401.05,336.85c-2.05.62-2.43,4.9-2.21,6.73.9,7.4,15.94,5.61,17.97.57.9-2.23.79-5.47-1.65-6.56-1.97-.88-12.17-1.33-14.11-.74Z"/>
    <path class="cls-1" d="M302.57,350.37c-.12-.12-.12-3.17,0-3.29.33-.32,3.79.81,3.76-1.17l.03-34.75c.14-1.36-3.35-1.1-3.73-1.69-.14-.22-.17-3.11-.06-3.22.29-.28,7.26-.95,8.01-.75,1.72.45,1.06,2.33,1.61,3.56,16.46-13.34,27.99,10.19,17.13,23.22-4.22,5.07-10.75,5.81-16.89,4.94v9.39c0,.8,7.6-.91,5.64,3.75-1.96-.42-14.95.55-15.5,0ZM318.42,309.19c-2.19.13-5.69,1.44-6.01,3.85-.77,5.8.62,13.27.02,19.27.43,2.33,5.67,2.3,7.54,1.9,9.7-2.07,10.02-25.72-1.56-25.02Z"/>
    <path class="cls-1" d="M208.64,333.95c.19.19,3.11-.19,3.29,0,.1.1.07,2.69-.03,2.8-.38.39-6.78.7-7.65.42-1.4-.47-1.04-2.63-1.48-3.68-14.37,12.34-26.36-5.53-19.36-19.82,1.68-3.44,6.95-8.35,10.9-8.35h7.04c.14,0,.67.64,1.17.47v-10.33c0-.28-5.04.11-5.61-.49-.21-.22-.11-2.22.42-2.59.4-.28,8.85-1,9.68-.93.48.04,1.62.67,1.62.96v41.54ZM202.54,309.54c-11.62-4.13-15.48,4.66-14.55,14.78.45,4.85,3.12,9.51,8.61,9.13,1.21-.08,5.94-1.83,5.94-3.02v-20.88Z"/>
    <path class="cls-1" d="M347.99,299.55c-2.09,2.48-7.59,1.44-6.89-3.35.97-6.65,11.57-2.19,6.89,3.35Z"/>
  </g>
</svg>