<?xml version="1.0" encoding="UTF-8"?>
<svg id="Layer_1" xmlns="http://www.w3.org/2000/svg" version="1.1" viewBox="0 0 32 32">
  <!-- Generator: Adobe Illustrator 30.0.0, SVG Export Plug-In . SVG Version: 2.1.1 Build 123)  -->
  <defs>
    <style>
      .st0 {
        fill: #fff;
      }

      .st1 {
        fill: #2b2b2b;
        stroke: #fff;
        stroke-miterlimit: 10;
        stroke-width: .8px;
      }
    </style>
  </defs>
  <circle class="st1" cx="16" cy="16" r="15.3"/>
  <path class="st0" d="M17.7,10.4l.3.3,3.9,4,4.1-4.5v11.1h-.4v-10.1l-3.7,4.1-4.2-4.3-3.9,4.2-4-4.1c0,1.5,0,6,0,7.2,0,.8-.4,1.6-.9,2.1-.6.6-1.3,1-2.2,1s-1.7-.4-2.3-1.1c-.4-.4-.6-.9-.8-1.4h.4c.3,1,1.3,2.1,2.7,2.1s2.5-.8,2.7-2.7c.1-1.4,0-7.6,0-7.7v-.5s4.4,4.5,4.4,4.5l3.6-3.9"/>
</svg>