<?xml version="1.0" encoding="UTF-8"?>
<svg id="FilmADE_1" xmlns="http://www.w3.org/2000/svg" viewBox="0 0 500 500">
  <defs>
    <style>
      .cls-1 {
        fill: #f15a29;
      }

      .cls-2 {
        fill: #f9ffe8;
      }

      .cls-3 {
        stroke: #f15a29;
        stroke-miterlimit: 10;
        stroke-width: 5.7px;
      }

      .cls-3, .cls-4 {
        fill: none;
      }

      .cls-5 {
        fill: #515151;
      }

      .cls-4 {
        stroke: #515151;
        stroke-linejoin: round;
        stroke-width: 5.64px;
      }
    </style>
  </defs>
  <rect class="cls-2" x="0" width="500" height="500"/>
  <rect class="cls-4" x="30.79" y="30.79" width="438.41" height="438.41"/>
  <g>
    <g>
      <path class="cls-5" d="M150,315.4v-61.82c0-.83.45-1.29,1.25-1.29h28.74c.81,0,1.25.46,1.25,1.29v2.67c0,.83-.45,1.2-1.25,1.2h-24.44v22.72h23.28c.81,0,1.25.46,1.25,1.29v2.67c0,.83-.45,1.19-1.25,1.19h-23.28v30.08c0,.83-.36,1.29-1.16,1.29h-3.13c-.81,0-1.25-.46-1.25-1.29h0Z"/>
      <path class="cls-5" d="M195.59,296.08v-42.5c0-.83.46-1.29,1.29-1.29h3.22c.83,0,1.2.46,1.2,1.29v41.67c0,11.78,6.44,17.02,15.27,17.02s15.18-5.24,15.18-17.02v-41.67c0-.83.46-1.29,1.29-1.29h3.22c.83,0,1.29.46,1.29,1.29v42.5c0,13.98-8.46,21.8-20.98,21.8s-20.98-7.82-20.98-21.8h0Z"/>
      <path class="cls-5" d="M300.7,315.77l-37.91-55.66v55.29c0,.83-.43,1.29-1.4,1.29h-2.53c-.97,0-1.51-.46-1.51-1.29v-61.82c0-.83.54-1.29,1.51-1.29h4.25c.86,0,2.74.28,3.17.92l36.67,55.66v-55.29c0-.83.54-1.29,1.51-1.29h3.76c.97,0,1.4.46,1.4,1.29v61.82c0,.83-.43,1.29-1.4,1.29h-5.59c-.86,0-1.51-.28-1.94-.92h0Z"/>
      <path class="cls-5" d="M323.12,315.4v-61.82c0-.83.46-1.29,1.29-1.29h13.16c22.54,0,32.66,13.71,32.66,32.2s-10.12,32.2-32.66,32.2h-13.16c-.83,0-1.29-.46-1.29-1.29ZM337.47,311.44c18.77,0,26.95-10.3,26.95-26.95s-8.19-27.05-26.95-27.05h-8.65v54h8.65Z"/>
    </g>
    <g>
      <path class="cls-5" d="M80.99,245.23v-61.82c0-.83.46-1.29,1.29-1.29h29.53c.83,0,1.29.46,1.29,1.29v2.67c0,.83-.46,1.2-1.29,1.2h-25.11v22.72h23.92c.83,0,1.29.46,1.29,1.29v2.67c0,.83-.46,1.2-1.29,1.2h-23.92v30.08c0,.83-.37,1.29-1.2,1.29h-3.22c-.83,0-1.29-.46-1.29-1.29Z"/>
      <path class="cls-5" d="M128,245.23v-61.82c0-.83.46-1.29,1.29-1.29h3.22c.83,0,1.2.46,1.2,1.29v61.82c0,.83-.37,1.29-1.2,1.29h-3.22c-.83,0-1.29-.46-1.29-1.29Z"/>
      <path class="cls-5" d="M150.08,245.23v-61.82c0-.83.46-1.29,1.29-1.29h3.22c.83,0,1.2.46,1.2,1.29v57.86h24.1c.83,0,1.38.55,1.38,1.38v2.48c0,.83-.55,1.38-1.38,1.38h-28.52c-.83,0-1.29-.46-1.29-1.29h0Z"/>
      <path class="cls-5" d="M196,245.24v-61.15c0-.82.46-1.27,1.27-1.27h4.82c.73,0,1.09.27,1.37.91l30.84,56.69,21.3-56.69c.27-.64.73-.91,1.46-.91h4.82c.82,0,.94.46.94,1.27v61.15c0,.82-.12,1.27-.94,1.27h-3.18c-.82,0-1.27-.46-1.27-1.27v-53.24l-19.76,53.51c-.27.73-.82,1-1.55,1h-3.64c-.73,0-1.27-.27-1.55-1l-29.29-53.51v53.24c0,.82-.36,1.27-1.18,1.27h-3.19c-.82,0-1.27-.46-1.27-1.27h0Z"/>
      <path class="cls-1" d="M257.33,244.95l22.45-61.73c.28-.74.92-1.1,1.66-1.1h3.96c.74,0,1.38.37,1.66,1.1l22.45,61.73c.37.92,0,1.56-1.01,1.56h-3.49c-.74,0-1.1-.27-1.38-1.1l-5.06-14.07h-30.36l-4.97,14.07c-.27.83-.74,1.1-1.56,1.1l-2.97-.28c-1.01,0-1.38-.64-1.01-1.56l-.34.28ZM296.7,226.18l-13.34-37.35-13.34,37.35h26.68Z"/>
      <path class="cls-1" d="M322.87,245.23v-61.82c0-.83.46-1.29,1.29-1.29h13.15c22.54,0,32.66,13.71,32.66,32.2s-10.12,32.2-32.66,32.2h-13.15c-.83,0-1.29-.46-1.29-1.29ZM337.22,241.27c18.77,0,26.95-10.3,26.95-26.96s-8.19-27.05-26.95-27.05h-8.65v54h8.65Z"/>
      <path class="cls-1" d="M384.05,245.23v-61.82c0-.83.46-1.29,1.29-1.29h30.45c.83,0,1.29.46,1.29,1.29v2.67c0,.83-.46,1.2-1.29,1.2h-26.03v23.28h24.75c.83,0,1.2.46,1.2,1.29v2.67c0,.83-.37,1.29-1.2,1.29h-24.75v25.48h26.13c.83,0,1.29.46,1.29,1.29v2.67c0,.83-.46,1.29-1.29,1.29h-30.54c-.83,0-1.29-.46-1.29-1.29h0Z"/>
    </g>
    <line class="cls-3" x1="260.19" y1="182.79" x2="260.19" y2="316.7"/>
  </g>
</svg>