<?xml version="1.0" encoding="UTF-8"?>
<svg id="Layer_1" xmlns="http://www.w3.org/2000/svg" version="1.1" viewBox="0 0 614.7 333.7">
  <!-- Generator: Adobe Illustrator 30.0.0, SVG Export Plug-In . SVG Version: 2.1.1 Build 123)  -->
  <defs>
    <style>
      .st0 {
        fill: #fff;
      }
    </style>
  </defs>
  <path class="st0" d="M372.1,26.5l6.5,6.7,97.6,99.7,103.7-114v280.2h-10V44.7l-93.4,102.7-104.7-106.9-97.8,106.6-100.1-102.2c.6,38.2,2.3,150.9-.2,181.8-1.7,20.4-9.4,39.2-21.8,53-14.2,15.9-33.5,24.2-55.9,24.2s-42.4-9.7-57.8-27.3c-9.5-10.8-16.3-23.7-19.5-36.4l10.4.3c7.5,25.6,32,53.5,66.9,53.5s63.9-21,67.7-68.1c2.9-36.1,0-191.8,0-193.3l-.2-12.6,110.3,112.6,91.1-99.2"/>
</svg>